<svg height="94" viewBox="0 0 122 94" width="122" xmlns="http://www.w3.org/2000/svg" xmlns:xlink="http://www.w3.org/1999/xlink"><defs><path id="a" d="m144.453286 104c32.5848 0 59-26.4151998 59-59s-26.4152-59-59-59-29.850079 27.6754846-29.850079 60.2602848-2.734721 57.7397152 29.850079 57.7397152z"/><filter id="b" height="200%" width="200%" x="-50%" y="-50%"><feOffset dx="7" dy="-10" in="SourceAlpha" result="shadowOffsetInner1"/><feComposite in="shadowOffsetInner1" in2="SourceAlpha" k2="-1" k3="1" operator="arithmetic" result="shadowInnerInner1"/><feColorMatrix in="shadowInnerInner1" type="matrix" values="0 0 0 0 0   0 0 0 0 0   0 0 0 0 0  0 0 0 0.1 0"/></filter></defs><g fill="none" fill-rule="evenodd" transform="translate(-98 2)"><g transform="matrix(0 -1 1 0 114 204)"><use fill="#2ece53" fill-rule="evenodd" xlink:href="#a"/><use fill="#000" filter="url(#b)" xlink:href="#a"/><use stroke="#0e1320" stroke-width="4" xlink:href="#a"/></g><circle cx="139" cy="38" fill="#000" r="7"/><circle cx="183" cy="38" fill="#000" r="7"/><g fill="#fff" transform="translate(112 10)"><circle cx="2" cy="28" r="2"/><path d="m12.2551528-1.65016666c-.1396991-.5266832.1904055-.9536443.7564212-.9536443h1.9812623c.557459 0 1.1286291.43814609 1.2666294.9611232 0 0 1.1685495 4.1293737 1.6436082 8.10055423.4750588 3.97118053.414062 4.00742363.414062 5.72039043 0 4.7630954-2.1094961 14.2606595-2.1094961 14.2606595-.1134584.5286871-.6487878.9572726-1.2148035.9572726h-1.9812623c-.557459 0-.8949098-.4270133-.7547374-.9660713 0 0 1.1692209-4.2012409 1.7072393-8.4442029.5380184-4.2429619.3455181-2.6876519.598585-5.613517.3728728-4.31101733-2.3075081-14.02256446-2.3075081-14.02256446z" transform="matrix(-.66913061 -.74314483 -.74314483 .66913061 34.70218 15.450406)"/></g><path d="m159.5 78.3050108c9.664983 0 17.5-7.8350169 17.5-17.5s-7.311272-4.3433267-16.976255-4.3433267-18.023745-5.3216564-18.023745 4.3433267 7.835017 17.5 17.5 17.5z" fill="#000"/></g></svg>