<svg height="48" viewBox="0 0 1024 1024" width="48" xmlns="http://www.w3.org/2000/svg"><g fill="#8a8a8a"><path d="m776.704 436.736h-484.864c-13.824 0-20.48 6.656-20.48 13.824 0 6.656 6.656 20.48 20.48 20.48h484.864c6.656 0 20.48-6.656 20.48-20.48-7.168-6.656-13.824-13.824-20.48-13.824zm-75.264 163.84h-341.504c-6.656 0-13.824 6.656-13.824 13.824 0 6.656 6.656 20.48 20.48 20.48h341.504c6.656 0 20.48-6.656 20.48-20.48-6.656-6.656-13.312-13.824-27.136-13.824z"/><path d="m879.104 252.416h-689.664c-47.616 0-81.92 34.304-81.92 75.264v416.256c0 40.96 34.304 81.92 81.92 81.92h225.28l95.744 122.88c6.656 6.656 13.824 13.824 20.48 13.824s20.48-6.656 20.48-13.824l95.744-122.88h225.28c20.48 0 34.304-6.656 54.784-20.48s27.136-34.304 27.136-61.44v-416.256c-.512-40.96-34.304-75.264-75.264-75.264zm27.136 498.688c0 6.656-6.656 13.824-6.656 20.48-6.656 0-6.656 6.656-20.48 6.656h-239.104c-6.656 0-20.48 6.656-20.48 13.824l-81.92 116.224-81.92-116.224c-6.656-6.656-13.824-13.824-20.48-13.824h-252.416c-13.824 0-27.136-13.824-27.136-27.136v-430.08c0-13.824 13.824-27.136 27.136-27.136h702.976c13.824 0 27.136 13.824 27.136 27.136z"/></g></svg>