<svg height="200" viewBox="0 0 1024 1024" width="200" xmlns="http://www.w3.org/2000/svg"><path d="m605.848435 958.708971c-.36225 0-.724501-.008186-1.088798-.026606-9.098215-.468674-16.872273-6.712889-19.288299-15.495926l-108.572787-394.728086-396.827911-110.623493c-8.760524-2.442632-14.976086-10.218736-15.427364-19.304671-.451278-9.083889 4.965082-17.437138 13.44215-20.73423l851.16563-331.067185c7.80885-3.038196 16.669658-1.174756 22.597671 4.750187 5.922896 5.92392 7.788383 14.789844 4.751211 22.597671l-331.068209 851.164606c-3.170202 8.149611-11.012821 13.467733-19.683294 13.467733zm-453.311343-544.53602 347.232352 96.79658c7.148817 1.9934 12.726859 7.591909 14.696724 14.746866l94.821599 344.730369 290.525839-746.93166z"/></svg>