<svg height="15.565" viewBox="0 0 14.622 15.565" width="14.622" xmlns="http://www.w3.org/2000/svg"><path d="m49.673 22.169h-12.08a1.27 1.27 0 0 1 -1.271-1.269v-8.883a1.27 1.27 0 0 1 1.271-1.269h1.271l-.019-.019 3.855-3.329a.95.95 0 0 1 .889-.769l.028-.024.019.019h.031a.95.95 0 0 1 .9.776l3.833 3.312-.034.034h1.305a1.27 1.27 0 0 1 1.272 1.269v8.883a1.27 1.27 0 0 1 -1.271 1.269zm-5.473-13.835a.939.939 0 0 1 -1.139 0l-2.789 2.412h6.728zm5.787 3.683a.318.318 0 0 0 -.318-.317h-12.076a.318.318 0 0 0 -.318.317v8.883a.318.318 0 0 0 .318.317h12.08a.318.318 0 0 0 .318-.317v-8.883zm-2.225 6.27h-8.262a.318.318 0 0 1 -.318-.317v-.317a.318.318 0 0 1 .318-.317h8.265a.318.318 0 0 1 .318.317v.317a.318.318 0 0 1 -.318.317zm-3.814-2.7h-4.448a.318.318 0 0 1 -.318-.317v-.317a.318.318 0 0 1 .318-.317h4.45a.318.318 0 0 1 .318.317v.317a.318.318 0 0 1 -.317.312z" opacity=".65" transform="translate(-36.322 -6.604)"/></svg>