<svg height="200" viewBox="0 0 1024 1024" width="200" xmlns="http://www.w3.org/2000/svg"><path d="m512 922.110425c-.002047 0-.004093 0-.00614 0-5.574972-.002047-10.916631-2.229784-14.84101-6.186909l-126.318963-127.393435c-1.613754-1.622964-164.173107-165.007101-187.469696-188.304713-68.7672-68.766177-109.155049-145.936768-116.797099-223.167733-7.609305-76.902484 18.981307-150.036132 74.874291-205.929116 54.793954-54.79293 121.562637-77.752852 193.072297-66.412572 59.33027 9.41237 120.361275 42.176588 177.48632 95.104031 57.122999-52.92642 118.155027-85.690638 177.485297-95.104031 71.513754-11.351536 138.279367 11.616572 193.072297 66.412572 55.891961 55.892985 82.482573 129.026632 74.874291 205.929116-7.643074 77.230965-48.0299 154.400532-116.7971 223.167732-50.870598 50.868551-311.172065 313.063135-313.795822 315.705312-3.924379 3.956102-9.266037 6.179746-14.838963 6.179746zm-213.071793-778.431072c-47.080272 0-89.998757 19.104103-127.914298 57.020668-47.547923 47.547923-69.27476 107.107413-62.829977 172.238806 6.67912 67.496254 42.902112 135.863341 104.751762 197.714014 23.334451 23.334451 185.92962 186.758498 187.568956 188.406021l111.505583 112.451118c56.269561-56.671721 255.224846-257.029958 299.05305-300.858162 61.850673-61.850673 98.073666-130.216737 104.750739-197.714014 6.446829-65.131393-15.280008-124.690884-62.828954-172.238806-45.573965-45.574988-98.377588-63.974034-156.947542-54.680367-55.707766 8.838296-114.234741 42.590004-169.251775 97.609085-3.922333 3.921309-9.240455 6.125511-14.785751 6.125511s-10.863419-2.203178-14.785751-6.124488c-55.020104-55.020104-113.546056-88.772836-169.252799-97.610108-9.842159-1.560542-19.523659-2.339278-29.033243-2.339278z"/></svg>