<svg height="13.982" viewBox="0 0 14 13.982" width="14" xmlns="http://www.w3.org/2000/svg" xmlns:xlink="http://www.w3.org/1999/xlink"><clipPath id="a"><use xlink:href="#b"/></clipPath><g opacity=".65" transform="translate(-2210 3200.982)"><g fill="none"><rect height="11.018" rx="2" width="14" x="2210" y="-3198.018"/><rect fill="none" height="10.018" rx="1.5" width="13" x="2210.5" y="-3197.518"/></g><g fill="none" transform="matrix(0 1 -1 0 2220.5 -3195.509)"><path d="m2.143 1.429a1 1 0 0 1 1.715 0l1.233 2.057a1 1 0 0 1 -.857 1.514h-2.468a1 1 0 0 1 -.857-1.514z"/><path d="m2.9998455 1.94391561-1.23365545 2.05608201 2.46762037.00001001zm.00015474-1.00026298c.33164501 0 .66329002.16183519.85749006.4855051l1.23380971 2.05635c.39992046.66651988-.08019972 1.51448989-.85748959 1.51448989h-2.46762037c-.77728987 0-1.25741005-.84797001-.85748958-1.51448989l1.23380971-2.05635c.19420003-.32366991.52584505-.4855051.85749006-.4855051z"/></g><rect height="4" rx=".5" transform="matrix(.8660254 -.5 .5 .8660254 2212.284 -3200.482)" width="1"/><g transform="matrix(-.8660254 -.5 .5 -.8660254 2219.717 -3197.018)"><rect id="b" height="4" rx=".5" width="1"/><path clip-path="url(#a)" d="m0 .5h.99994564m-.49994564-.5v3.99997687m.49994564-.5h-.99994564m.49994564.5v-3.99997687" fill="none"/></g></g></svg>