<svg height="200" viewBox="0 0 1024 1024" width="200" xmlns="http://www.w3.org/2000/svg"><path d="m256.256 96a96 96 0 0 0 -95.616 87.296l-58.176 640a96 96 0 0 0 95.616 104.704h627.84a96 96 0 0 0 95.616-104.704l-58.24-640a96 96 0 0 0 -95.552-87.296zm-31.872 93.12a32 32 0 0 1 31.872-29.12h511.488a32 32 0 0 1 31.872 29.12l58.176 640a32 32 0 0 1 -31.872 34.88h-627.84a32 32 0 0 1 -31.872-34.88zm159.616 130.88a32 32 0 0 0 -64 0c0 94.72 92.992 160 192 160s192-65.28 192-160a32 32 0 1 0 -64 0c0 46.72-50.304 96-128 96-77.76 0-128-49.28-128-96z"/></svg>