<svg height="200" viewBox="0 0 1024 1024" width="200" xmlns="http://www.w3.org/2000/svg"><path d="m483.882616 483.757772h-299.301714c-60.681034 0-110.049418-49.367361-110.049418-110.049418v-189.252295c0-60.681034 49.367361-110.049418 110.049418-110.049418h189.252295c60.681034 0 110.049418 49.367361 110.049418 110.049418zm-299.301714-369.33372c-38.614459 0-70.030983 31.416524-70.030983 70.030983v189.253318c0 38.614459 31.416524 70.030983 70.030983 70.030983h259.283278v-259.283277c-0-38.614459-31.416524-70.030983-70.030983-70.030983h-189.252295z"/><path d="m840.875263 483.757772h-301.256229v-299.301713c0-60.681034 49.367361-110.049418 110.049418-110.049418l191.206811-.000001c60.681034 0 110.049418 49.367361 110.049418 110.049418v189.253318c0 60.681035-49.368384 110.048396-110.049418 110.048396zm-261.238817-40.017412h261.238817c38.614459 0 70.030983-31.416524 70.030983-70.030983v-189.253318c0-38.614459-31.416524-70.030983-70.030983-70.030983h-191.207834c-38.615483 0-70.030983 31.416524-70.030983 70.030983z"/><path d="m373.83422 950.798814h-189.253318c-60.681034 0-110.049418-49.367361-110.049418-110.049418v-191.207833c0-60.681034 49.367361-110.049418 110.049418-110.049418h299.301713v301.257252c.000001 60.681033-49.36736 110.049417-110.048395 110.049417zm-189.253318-371.289257c-38.614459 0-70.030983 31.416524-70.030983 70.030983v191.208856c0 38.614459 31.416524 70.030983 70.030983 70.030983h189.252295c38.614459 0 70.030983-31.416524 70.030983-70.030983v-261.239839z"/><path d="m840.875263 950.798814h-191.207834c-60.681034 0-110.049418-49.367361-110.049418-110.049418v-301.257252h301.257252c60.681034 0 110.049418 49.367361 110.049418 110.049418v191.208856c0 60.680012-49.368384 110.048396-110.049418 110.048396zm-261.238817-371.289257v261.239839c0 38.614459 31.4155 70.030983 70.030983 70.030983h191.207834c38.614459 0 70.030983-31.416524 70.030983-70.030983v-191.207833c0-38.614459-31.416524-70.030983-70.030983-70.030983h-261.238817z"/></svg>