<svg height="200" viewBox="0 0 1024 1024" width="200" xmlns="http://www.w3.org/2000/svg"><path d="m646.4 64h-390.4c-51.2 0-96 44.8-96 96v704c0 51.2 44.8 96 96 96h512c51.2 0 96-44.8 96-96v-569.6zm-6.4 83.2 128 140.8h-96c-19.2 0-32-12.8-32-32zm160 716.8c0 19.2-12.8 32-32 32h-512c-19.2 0-32-12.8-32-32v-704c0-19.2 12.8-32 32-32h320v128c0 51.2 44.8 96 96 96h128z"/><path d="m320 512c0-19.2 12.8-32 32-32h320c19.2 0 32 12.8 32 32s-12.8 32-32 32h-320c-19.2 0-32-12.8-32-32zm0 192c0-19.2 12.8-32 32-32h320c19.2 0 32 12.8 32 32s-12.8 32-32 32h-320c-19.2 0-32-12.8-32-32z"/></svg>