<svg height="15.211" viewBox="0 0 13.673 15.211" width="13.673" xmlns="http://www.w3.org/2000/svg"><path d="m66.174 12.351v-5.1a.55.55 0 0 1 1.094 0v5.1a.55.55 0 0 1 -1.094 0zm3.843-1.533h-5.5a.553.553 0 0 1 0-1.106h5.5a.553.553 0 0 1 0 1.106zm0-2.443h-5.5a.553.553 0 0 1 0-1.106h5.5a.553.553 0 0 1 0 1.106zm-3.023-1.107a.541.541 0 0 1 -.383-.158l-2.465-2.465a.543.543 0 1 1 .768-.767l2.08 2.079 2.082-2.079a.542.542 0 0 1 .767.766l-2.465 2.466a.55.55 0 0 1 -.384.158zm4.586 7.943h-9.167a2.215 2.215 0 0 1 -2.253-2.173v-10.938a2.145 2.145 0 0 1 2.181-2.1h7.728a1.375 1.375 0 0 1 .955.383l2.416 2.346a1.261 1.261 0 0 1 .392.915v9.393a2.219 2.219 0 0 1 -2.253 2.174zm-9.239-14.188a1.1 1.1 0 0 0 -1.12 1.077v10.936a1.172 1.172 0 0 0 1.191 1.149h9.165a1.172 1.172 0 0 0 1.191-1.149v-9.39a.268.268 0 0 0 -.083-.195l-2.414-2.345a.293.293 0 0 0 -.2-.08h-7.73z" transform="translate(-60.16)"/></svg>