<svg height="200" viewBox="0 0 1024 1024" width="200" xmlns="http://www.w3.org/2000/svg"><path d="m909.050991 169.476903h-217.554898v-31.346939c0-39.5866-32.205493-71.792093-71.793116-71.792093h-211.547067c-39.5866 0-71.792093 32.205493-71.792093 71.792093v31.346939h-223.014236c-11.013845 0-19.942191 8.940626-19.942191 19.954471s8.928347 19.954471 19.942191 19.954471h84.264149v640.687918c0 60.479443 49.203632 109.683075 109.683075 109.683075h416.474366c60.479443 0 109.683075-49.203632 109.683075-109.683075v-640.687919h75.595722c11.012821 0 19.942191-8.940626 19.942191-19.954471s-8.928346-19.95447-19.941168-19.95447zm-532.802791-31.345916c0-17.593703 14.314007-31.907711 31.907711-31.907711h211.547067c17.593703 0 31.907711 14.314007 31.907711 31.907711v31.346939h-275.362489zm417.321664 711.943798c0 38.486546-31.312146 69.798692-69.798692 69.798692l-416.473344.000001c-38.486546 0-69.798692-31.312146-69.798692-69.798692v-639.032209h556.070728z"/><path d="m510.662539 861.276918c11.012821 0 19.954471-8.92937 19.954471-19.942191v-546.421974c0-11.013845-8.94165-19.942191-19.954471-19.942191s-19.954471 8.928347-19.954471 19.942191v546.421974c0 11.012821 8.941649 19.942191 19.954471 19.942191z"/><path d="m374.562814 801.449321c11.012821 0 19.954471-8.92937 19.954471-19.942191v-426.76678c0-11.013845-8.94165-19.942191-19.954471-19.942191s-19.954471 8.928347-19.954471 19.942191v426.76678c.000001 11.012821 8.94165 19.942191 19.954471 19.942191z"/><path d="m649.832182 801.449321c11.012821 0 19.954471-8.92937 19.954471-19.942191v-426.76678c0-11.013845-8.94165-19.942191-19.954471-19.942191s-19.954471 8.928347-19.954471 19.942191v426.76678c0 11.012821 8.941649 19.942191 19.954471 19.942191z"/></svg>