<svg height="200" viewBox="0 0 1024 1024" width="200" xmlns="http://www.w3.org/2000/svg"><path d="m954.382433 263.833921-82.627882-98.120738c-3.925403-4.66116-9.707083-7.351432-15.801894-7.351432h-278.870383v-71.279417c0-11.408841-9.248641-20.657482-20.657482-20.657482h-86.759993c-11.408841 0-20.657482 9.248641-20.657482 20.657482v184.884824h-277.849122c-6.327102 0-12.305257 2.90005-16.223496 7.868201l-84.682682 107.425662c-5.91164 7.500834-5.91164 18.076704 0 25.577538l84.682681 107.423615c3.917216 4.970198 9.895371 7.869225 16.223496 7.869225h277.850146v299.32218h-135.281079c-11.408841 0-20.657482 9.248641-20.657482 20.657482v86.759993c0 11.408841 9.248641 20.657482 20.657482 20.657482h396.616086c11.408841 0 20.657482-9.248641 20.657482-20.657482v-86.759993c0-11.408841-9.248641-20.657482-20.657482-20.657482l-133.261073-.000001v-157.778466h159.40757c5.16872 0 10.149151-1.936095 13.959943-5.430686l76.081793-69.744457c4.266164-3.911076 6.697539-9.43693 6.697539-15.226796s-2.430352-11.314697-6.699586-15.226796l-76.081793-69.742411c-3.808746-3.493567-8.789177-5.430686-13.957897-5.430686h-159.407569v-92.957135h278.869359c6.093788 0 11.875468-2.690272 15.801894-7.351432l82.627882-98.120738c6.474459-7.686053 6.474459-18.920932.001024-26.610054zm-773.204024 222.983537-68.399833-86.768179 68.399833-86.769202h267.829931v173.536358l-267.829931-.000001zm508.508479 427.397137h-355.302145v-45.446052h355.302145zm-199.364607-86.759993v-719.715809h45.446052v719.715809zm238.132563-297.265334 53.547567 49.084928-53.547567 49.086975h-151.37257v-98.171903zm117.88692-175.585018h-269.25949v-154.928558h269.25949l65.233724 77.464279z"/></svg>