<svg height="14.242" viewBox="0 0 14.152 14.242" width="14.152" xmlns="http://www.w3.org/2000/svg"><g opacity=".65" transform="translate(-34.023 .11)"><path d="m46.353 0h-10.517a1.777 1.777 0 0 0 -1.7 1.8v10.52a1.688 1.688 0 0 0 1.7 1.7h10.517a1.688 1.688 0 0 0 1.7-1.7v-10.52a1.656 1.656 0 0 0 -1.7-1.8zm-10.517.9h10.517a.9.9 0 0 1 0 1.8h-10.517a.9.9 0 0 1 -.9-.9.968.968 0 0 1 .9-.9zm10.517 12.221h-10.517a.9.9 0 0 1 -.9-.9v-9.016a1.488 1.488 0 0 0 .9.2h10.517a2.924 2.924 0 0 0 .9-.2v9.014a.841.841 0 0 1 -.9.902z"/><path d="m219.539 382.293a.883.883 0 0 0 -.9.8 1.041 1.041 0 0 0 .4.8 3.036 3.036 0 0 1 -6.01 0 1.041 1.041 0 0 0 .4-.8.908.908 0 0 0 -1.8 0 1.021 1.021 0 0 0 .5.8 3.929 3.929 0 0 0 7.812 0 .793.793 0 0 0 .5-.8.883.883 0 0 0 -.902-.8z" transform="translate(-174.889 -376.684)"/></g></svg>