<svg height="13.504" viewBox="0 0 13.91 13.504" width="13.91" xmlns="http://www.w3.org/2000/svg"><g fill="none" opacity=".65" stroke-linecap="round" stroke-linejoin="round" transform="translate(-5.3 -5.5)"><path d="m17.462 6h-10.42a1.042 1.042 0 0 0 -1.042 1.042v10.42a1.042 1.042 0 0 0 1.042 1.038h10.42a1.042 1.042 0 0 0 1.038-1.038v-10.42a1.042 1.042 0 0 0 -1.038-1.042z"/><path d="m14.737 16.473a1.737 1.737 0 1 0 -1.737-1.736 1.737 1.737 0 0 0 1.737 1.736z" transform="translate(-4.569 -4.569)"/><path d="m18.5 29.473-3.817-3.473-3.473 3.126-2.431-2.084-2.779 2.084" transform="translate(0 -13.054)"/></g></svg>