<svg height="200" viewBox="0 0 1024 1024" width="200" xmlns="http://www.w3.org/2000/svg"><path d="m777.312598 940.007027c-3.184529 0-6.380314-.759293-9.307993-2.297322l-255.30978-134.225028-255.30978 134.224005c-6.741541 3.543709-14.909571 2.952238-21.070898-1.52268-6.161327-4.475941-9.246595-12.062733-7.959276-19.568684l48.759517-284.289812-206.548216-201.336518c-5.453199-5.316076-7.4159-13.268188-5.062296-20.511149s8.614192-12.521175 16.150842-13.616112l285.444101-41.47767 127.654378-258.655992c3.370771-6.828522 10.326183-11.153014 17.941628-11.153014s14.570857 4.323469 17.941628 11.153014l127.654378 258.655991 285.444101 41.47767c7.53665 1.094938 13.797237 6.373151 16.150842 13.616112 2.353604 7.242961.390903 15.19405-5.062296 20.511149l-206.54924 201.335495 48.759517 284.289812c1.287319 7.505951-1.798972 15.092743-7.959276 19.568684-3.48538 2.532683-7.613398 3.822049-11.761881 3.822049z"/></svg>