<svg height="200" viewBox="0 0 1024 1024" width="200" xmlns="http://www.w3.org/2000/svg"><path d="m248.482281 938.000324c-4.306072 0-8.592702-1.336438-12.211113-3.967358-6.395664-4.646833-9.600659-12.521175-8.264221-20.314675l48.430012-282.363949-205.148333-199.971428c-5.66093-5.519714-7.698333-13.772678-5.255701-21.291932 2.444679-7.519254 8.943696-13.000082 16.768919-14.137998l283.508006-41.195238 126.789685-256.904091c3.498684-7.089465 10.720156-11.577686 18.627243-11.577686s15.127536 4.489244 18.627243 11.577686l126.788661 256.904091 283.510052 41.195238c7.823176 1.137916 14.322194 6.618744 16.766872 14.137998 2.442632 7.519254.405229 15.773242-5.255701 21.291932l-205.151403 199.971428 48.430012 282.363949c1.336438 7.7935-1.868557 15.667841-8.264221 20.314675-6.399757 4.646833-14.878872 5.257747-21.874193 1.582031l-253.577323-133.316331-253.580392 133.316331c-3.03922 1.596358-6.356778 2.385327-9.664104 2.385327zm-118.059859-506.98887 182.834118 178.216961c4.894474 4.7727 7.128351 11.647271 5.974062 18.385742l-43.163055 251.64532 225.994104-118.811989c6.048763-3.180436 13.282514-3.180436 19.331277 0l225.992057 118.811989-43.163055-251.64532c-1.154289-6.738471 1.079588-13.613042 5.974062-18.385742l182.833095-178.216961-252.665557-36.71418c-6.767124-.983397-12.614296-5.233188-15.641235-11.362792l-112.995518-228.955552-112.997563 228.955552c-3.025916 6.129604-8.874111 10.379395-15.639189 11.362792z"/></svg>