<svg height="200" viewBox="0 0 1024 1024" width="200" xmlns="http://www.w3.org/2000/svg"><path d="m757.810429 373.751333h-432.164721v-83.895759c0-103.694687 81.507362-184.922686 185.559183-184.922686 78.121242 0 146.053424 46.74565 173.062568 119.090329 3.865028 10.352789 15.384385 15.609513 25.742291 11.746532 10.351766-3.866051 15.609513-15.390525 11.744485-25.742291-32.909528-88.149643-115.55583-145.108913-210.549344-145.108913-61.918211 0-119.246895 23.662933-161.423483 66.63156-41.3692 42.142819-64.151066 98.363262-64.151066 158.305469v83.895759h-20.007683c-60.774155 0-110.042255 49.267077-110.042255 110.042255v366.139981c0 60.774155 49.267077 110.042255 110.042255 110.042255h492.187769c60.775178 0 110.042255-49.267077 110.042255-110.042255l.000001-366.139981c0-60.775178-49.267077-110.042255-110.042255-110.042255zm70.026889 476.182236c0 38.674834-31.352055 70.02689-70.02689 70.02689h-492.187768c-38.674834 0-70.02689-31.352055-70.02689-70.02689v-366.139981c-0-38.674834 31.352055-70.02689 70.02689-70.02689h492.187769c38.674834 0 70.02689 31.352055 70.02689 70.02689z"/><path d="m509.715981 583.832002c-11.048637 0-20.007683 8.959046-20.007683 20.007683v110.042255c0 11.048637 8.958022 20.007683 20.007683 20.007683s20.007683-8.958022 20.007683-20.007683l-.000001-110.042255c0-11.049661-8.958022-20.007683-20.007682-20.007683z"/></svg>