<svg height="15.664" viewBox="0 0 14.223 15.664" width="14.223" xmlns="http://www.w3.org/2000/svg"><path d="m97.783 6.155a1.755 1.755 0 0 1 1.084 0l5.124 1.689a1.855 1.855 0 0 1 1.326 1.73v5.726l-.048.211a6.226 6.226 0 0 1 -1.79 3.277 19.692 19.692 0 0 1 -4.957 2.759l-.193.084-.415-.173a17.759 17.759 0 0 1 -4.73-2.667 6.17 6.17 0 0 1 -1.984-3.457l-.008-.039v-5.71a1.856 1.856 0 0 1 1.341-1.735zm.771.8a.752.752 0 0 0 -.465 0l-5.25 1.695a1 1 0 0 0 -.721.934v5.629l.027.12a5.313 5.313 0 0 0 1.566 2.74l.114.1a16.468 16.468 0 0 0 4.27 2.427l.224.1.406-.18a17.859 17.859 0 0 0 4.035-2.271l.069-.061a5.524 5.524 0 0 0 1.572-3.01l-.01.04v-5.641a.991.991 0 0 0 -.647-.908l-.067-.024zm2.522 3.006a.4.4 0 0 1 .084.561l-.03.037-2 2.16h1.9a.447.447 0 0 1 .467.4.438.438 0 0 1 -.42.444h-.047-2.437v.824h2.432a.447.447 0 0 1 .463.4.438.438 0 0 1 -.416.444h-.047-2.432v2.166a.442.442 0 0 1 -.439.425.452.452 0 0 1 -.484-.381v-.043-2.156h-2.354a.447.447 0 0 1 -.459-.4.437.437 0 0 1 .412-.444h.047 2.352v-.825h-2.476a.447.447 0 0 1 -.459-.4.437.437 0 0 1 .412-.444h.047 1.958l-1.943-2.165a.4.4 0 0 1 .044-.582.493.493 0 0 1 .636.008l.034.034 2.215 2.467 2.289-2.472a.492.492 0 0 1 .652-.049z" opacity=".65" stroke-width=".1" transform="translate(-91.144 -6.018)"/></svg>