<svg height="200" viewBox="0 0 1024 1024" width="200" xmlns="http://www.w3.org/2000/svg"><path d="m586.945923 513.581008c55.067176-27.962865 92.91211-85.125773 92.91211-150.998039 0-93.338828-75.937506-169.276335-169.277358-169.276335s-169.275311 75.937506-169.275311 169.276335c0 65.872267 37.844933 123.034151 92.911086 150.998039-95.652524 32.016181-164.778904 122.45496-164.778904 228.743728 0 11.31572 9.17394 20.491707 20.491707 20.491707s20.491707-9.174963 20.491707-20.491707c0-110.36869 89.791026-200.160739 200.160739-200.160739s200.159714 89.792049 200.159714 200.160739c0 11.31572 9.17394 20.491707 20.491707 20.491707s20.491707-9.174963 20.491707-20.491707c-.001024-106.288768-69.126381-196.726524-164.778904-228.743728zm-204.65817-150.998039c0-70.742181 57.552787-128.293945 128.292921-128.293945 70.742181 0 128.293945 57.552787 128.293945 128.293945 0 70.741157-57.552787 128.292921-128.293945 128.292921-70.740134.001023-128.292921-57.551764-128.292921-128.292921z"/><path d="m827.871087 196.127889c-84.372619-84.370572-196.550514-130.837884-315.871087-130.837884s-231.499491 46.466288-315.871087 130.837884c-84.37262 84.373643-130.837884 196.550515-130.837884 315.871088s46.465265 231.499491 130.837884 315.872111 196.550515 130.837884 315.871087 130.837884 231.498468-46.465265 315.871087-130.837884 130.837884-196.551539 130.837884-315.872111-46.465264-231.498468-130.837884-315.871088zm-315.871087 721.598692c-223.718271 0-405.726581-182.007287-405.726581-405.727605 0-223.718271 182.00831-405.726581 405.726581-405.726581s405.726581 182.007287 405.726581 405.726581c0 223.720318-182.00831 405.727605-405.726581 405.727605z"/></svg>