<svg height="200" viewBox="0 0 1024 1024" width="200" xmlns="http://www.w3.org/2000/svg"><path d="m902.068357 744.573319c0-60.965821-71.69129-136.044101-128.705623-144.511577l77.336273-127.576626h-178.945975c32.176406-46.288864 53.627343-107.254686 53.627343-174.994487 0-5.080485 0-10.725469 0-15.805954 69.433297-12.418964 114.593164-32.176406 114.593164-51.933848 0-21.450937-50.240353-41.208379-127.012128-53.627343-3.38699-18.063947-55.320838-164.269019-116.286659-164.269019-27.095921 0-48.546858 14.112459-62.659316 35.563396 0 10.725469-10.725469 21.450937-24.837927 21.450937-12.418964 0-23.144432-9.031974-24.837927-19.757442-12.418965-21.450937-35.563397-37.821389-62.659317-37.821389-59.272327 0-114.593165 134.350606-127.012128 168.220507-66.046307 12.418964-108.948181 30.482911-108.948181 51.933848s44.595369 39.514884 114.593164 51.933848v15.805954c0 67.739802 19.757442 128.705623 53.627343 174.994487h-178.945976l76.771775 125.318633c-57.014333 0-132.092613 78.46527-132.092613 146.76957l1.693495 205.477398c0 33.869901 26.531422 60.965821 60.965821 60.965821h661.027563c33.869901 0 60.965821-27.095921 60.965821-60.965821zm-437.486218 217.896361h-28.789416l-53.627343-395.148842 112.335171 98.222712zm123.060639 0h-28.789415l-30.482911-296.92613 112.899669-99.916207zm67.739802-623.770672v12.418964h-14.112459s-9.031974 76.771775-57.014333 76.771775c-48.546858 0-57.578831-76.771775-57.578831-76.771775h-32.176406c-7.338479 62.659316-39.514884 76.771775-57.014333 76.771775-42.901874 0-55.320838-57.014333-57.014333-76.771775h-14.676957v-12.418964-12.418964h107.254686v12.418964h71.69129v-12.418964h107.254686v12.418964z"/></svg>