<svg height="13.441" viewBox="0 0 14.467 13.441" width="14.467" xmlns="http://www.w3.org/2000/svg"><path d="m23.519 9.61v3.42a.5.5 0 0 1 -.475.521h-.413v8a.9.9 0 0 1 -.242.62.8.8 0 0 1 -.585.257h-10.938a.8.8 0 0 1 -.584-.257.9.9 0 0 1 -.243-.62v-8h-.41a.5.5 0 0 1 -.477-.518v-3.424a.5.5 0 0 1 .474-.521h13.416a.5.5 0 0 1 .477.519zm-13.413 2.9h12.459v-2.377h-12.46v2.376zm7.661 3.89v-2.847h-2.92v2.847l1.293-.523a.441.441 0 0 1 .332 0l1.293.523zm.312 1.24-1.771-.717-1.771.718a.468.468 0 0 1 -.614-.309.566.566 0 0 1 -.031-.182v-3.598h-2.892v7.833h10.678v-7.833h-2.956v3.594a.5.5 0 0 1 -.477.522.441.441 0 0 1 -.165-.033z" opacity=".65" stroke-width=".1" transform="translate(-9.102 -9.038)"/></svg>