<svg height="13.545" viewBox="0 0 13.945 13.545" width="13.945" xmlns="http://www.w3.org/2000/svg"><g opacity=".65" stroke-width=".1" transform="translate(-79.366 -114.467)"><path d="m92.338 114.517h-12a.923.923 0 0 0 -.923.923v9.23a.923.923 0 0 0 .923.923h12a.923.923 0 0 0 .923-.923v-9.23a.923.923 0 0 0 -.923-.923zm-12 .923h12v9.23h-12z"/><path d="m202.133 311.568a.461.461 0 0 1 .705.591l-.054.063-3.511 3.5-2.62-2.528-2.173 2.206a.461.461 0 0 1 -.589.057l-.065-.054a.461.461 0 0 1 -.057-.588l.054-.065 2.814-2.855 2.625 2.532 2.871-2.858zm.745 9.128a.5.5 0 0 1 .083.977l-.083.008h-9.222a.477.477 0 0 1 -.462-.492.484.484 0 0 1 .378-.485l.083-.008z" transform="translate(-111.933 -193.719)"/></g></svg>