<svg height="200" viewBox="0 0 1024 1024" width="200" xmlns="http://www.w3.org/2000/svg"><path d="m380.16 384a32 32 0 0 1 45.248.96l86.592 90.432 86.592-90.432a32 32 0 0 1 46.208 44.288l-94.4 98.56h89.6a32 32 0 0 1 0 64h-96v50.56h96a32 32 0 0 1 0 64h-96v63.36a32 32 0 0 1 -64 0v-63.36h-96a32 32 0 1 1 0-64h96v-50.56h-96a32 32 0 0 1 0-64h89.6l-94.4-98.56a32 32 0 0 1 .96-45.248z"/><path d="m128 160a96 96 0 0 1 96-96h512a96 96 0 0 1 96 96v32a96 96 0 0 1 96 96v576a96 96 0 0 1 -96 96h-608a96 96 0 0 1 -96-96zm96-32a32 32 0 0 0 -32 32v704a32 32 0 0 0 32 32h608a32 32 0 0 0 32-32v-576a32 32 0 0 0 -32-32h-448a32 32 0 0 1 0-64h384v-32a32 32 0 0 0 -32-32z"/></svg>