<svg height="200" viewBox="0 0 1024 1024" width="200" xmlns="http://www.w3.org/2000/svg"><path d="m582.4 96 345.6 288c64 57.6 32 160-57.6 172.8v294.4c0 51.2-44.8 96-96 96h-198.4v-230.4c0-19.2-12.8-32-32-32h-64c-19.2 6.4-32 19.2-32 38.4v230.4h-198.4c-51.2 0-96-44.8-96-96v-300.8c-83.2-6.4-121.6-115.2-57.6-172.8l358.4-288c38.4-32 96-32 128 0zm-38.4 51.2c-12.8-12.8-32-12.8-44.8 0l-358.4 288c-25.6 19.2-12.8 57.6 19.2 57.6h51.2v358.4c0 19.2 12.8 32 32 32h140.8v-166.4c0-51.2 44.8-96 96-96h64c51.2 0 96 44.8 96 96v166.4h134.4c19.2 0 32-12.8 32-32v-358.4h51.2c32 0 44.8-38.4 19.2-57.6z"/></svg>