<svg height="32" viewBox="0 0 1024 1024" width="32" xmlns="http://www.w3.org/2000/svg"><g fill="#8a8a8a"><path d="m891.895263 374.61705h-356.167862v-232.194317c0-14.506389-11.806907-26.313296-26.313296-26.313296l-377.320624.000001c-14.506389 0-26.313296 11.806907-26.313296 26.313296v573.73811c0 14.506389 11.806907 26.313296 26.313296 26.313296h102.881159v35.71748c0 14.506389 11.806907 26.313296 26.313296 26.313296l275.566126 2.491751 36.192294 48.266283-135.95851-.000002c-14.506389 0-26.28362 11.806907-26.28362 26.313296s11.777231 26.313296 26.28362 26.313296h273.9053c14.506389 0 26.313296-11.806907 26.313296-26.313296s-11.806907-26.313296-26.253944-26.313296l-73.987085-2.462075-36.251645-48.295959h291.081495c14.536065 0 26.342971-11.806907 26.342971-26.313296v-377.320625c.001024-14.476712-11.805883-26.253943-26.342971-26.253943zm-656.920624 26.253943v289.034883h-76.538187v-521.169847h324.69301v205.881021h-221.841527c-14.506389-0-26.313296 11.777231-26.313296 26.253943zm52.657291 350.977654v-324.633658h335.906399l-308.999586 324.633658zm203.211214 0h-101.279684l303.659975-321.518714 2.373047-3.114944h89.649809zm374.738823 0h-301.168224l290.013163-322.854129 4.064572-1.779529h7.090489z"/><path d="m416.346453 252.363681h-175.710884c-14.506389 0-26.313296 11.806907-26.313296 26.342971 0 14.506389 11.806907 26.313296 26.313296 26.313296h175.710884c14.536065 0 26.342971-11.806907 26.342971-26.313296.001024-14.536064-11.806906-26.342971-26.342971-26.342971z"/></g></svg>