<svg height="200" viewBox="0 0 1024 1024" width="200" xmlns="http://www.w3.org/2000/svg"><path d="m870.4 211.2h-76.8c12.8-51.2-12.8-102.4-57.6-128-57.6-38.4-128-19.2-160 38.4l-51.2 89.6h-19.2l-51.2-89.6c-32-57.6-108.8-76.8-166.4-38.4-44.8 25.6-70.4 76.8-57.6 128h-76.8c-51.2 0-89.6 38.4-89.6 89.6v121.6c0 38.4 25.6 70.4 57.6 83.2v364.8c0 51.2 38.4 89.6 89.6 89.6h595.2c51.2 0 89.6-38.4 89.6-89.6v-371.2c38.4-6.4 64-44.8 64-83.2v-115.2c0-51.2-38.4-89.6-89.6-89.6zm-550.4-76.8c32-19.2 64-6.4 83.2 19.2l32 57.6h-140.8c-12.8-32 0-64 25.6-76.8zm160 761.6h-268.8c-19.2 0-32-12.8-32-32v-358.4h294.4v390.4zm0-448h-326.4c-19.2 0-32-12.8-32-32v-115.2c0-19.2 12.8-32 32-32h326.4zm147.2-294.4c12.8-25.6 51.2-38.4 83.2-19.2 25.6 12.8 38.4 51.2 25.6 76.8h-140.8zm211.2 710.4c0 19.2-12.8 32-32 32h-262.4v-390.4h294.4zm64-448c0 19.2-12.8 32-32 32h-326.4v-179.2h326.4c19.2 0 32 12.8 32 32z"/></svg>