<svg height="200" viewBox="0 0 1024 1024" width="200" xmlns="http://www.w3.org/2000/svg"><path d="m908.785955 492.415966c-11.04966 0-20.008706 8.958022-20.008706 20.008706v338.328565c0 38.614459-31.416524 70.030983-70.030983 70.030983h-616.038518c-38.614459 0-70.030983-31.416524-70.030983-70.030983v-676.303067c0-38.614459 31.416524-70.030983 70.030983-70.030983h362.378308c11.04966 0 20.008706-8.958022 20.008706-20.008706s-8.959046-20.008706-20.008706-20.008706l-362.378308.000001c-60.681034 0-110.049418 49.367361-110.049418 110.049418v676.303067c0 60.681034 49.367361 110.049418 110.049418 110.049418h616.038518c60.681034 0 110.049418-49.367361 110.049418-110.049418l.000001-338.328566c0-11.051707-8.959046-20.009729-20.00973-20.009729z"/><path d="m942.576549 117.985158-35.370579-35.370579c-23.405059-23.405059-61.486376-23.400966-84.891436 0l-422.369633 422.36861c-1.295506 1.296529-2.407839 2.76395-3.304256 4.363378l-127.321803 227.069599c-4.457522 7.951089-2.977821 17.909905 3.598968 24.221658 3.830235 3.675716 8.823969 5.572926 13.859659 5.572926 3.613294 0 7.247054-.977257 10.488889-2.973728l219.285309-135.104047c1.327228-.816598 2.552126-1.784646 3.654226-2.885723l422.369633-422.36861c23.404036-23.407108 23.404036-61.488425.001023-84.893484zm-524.019755 434.095699 55.42124 55.279001-132.025942 81.343633zm495.722269-377.50175-408.352385 408.351362-63.748906-63.586201 408.434249-408.432202c7.798617-7.800663 20.493753-7.804756 28.29544 0l35.371602 35.371602c7.80271 7.800663 7.80271 20.493753-0 28.295439z"/></svg>