<svg height="15.566" viewBox="0 0 13.557 15.566" width="13.557" xmlns="http://www.w3.org/2000/svg"><g opacity=".65" transform="translate(-142.222 -85.333)"><path d="m155.311 90.338a1.222 1.222 0 0 0 -1.228-1.192h-.709l-.03-.148a4.492 4.492 0 0 0 -4.172-3.665 4.4 4.4 0 0 0 -4.154 3.667l-.03.148h-1.069a1.222 1.222 0 0 0 -1.228 1.192l-.469 9.35v.01a1.218 1.218 0 0 0 1.228 1.2h11.1a1.218 1.218 0 0 0 1.228-1.2zm-9.235-1.389a3.407 3.407 0 0 1 3.075-2.69 3.46 3.46 0 0 1 3.075 2.69l.06.216h-6.271l.06-.216zm8.346 11.014h-10.852a.335.335 0 0 1 -.219-.089.268.268 0 0 1 -.08-.236l.43-9.212a.3.3 0 0 1 .309-.286h9.983a.3.3 0 0 1 .309.3l.429 9.211a.305.305 0 0 1 -.309.315z"/><path d="m292.981 428.114a.525.525 0 0 1 -.539.5.111.111 0 0 1 -.061-.01l-.02-.009h-.508v4.515a.226.226 0 0 0 .01.076v.029a.541.541 0 0 1 -1.077-.01v-.038l.01-.029v-3.61l-3.973 3.572c-.01.019-.031.029-.041.048a.029.029 0 0 0 -.01.019.566.566 0 0 1 -.752 0 .464.464 0 0 1 -.163-.333.488.488 0 0 1 .132-.343c.01-.01.03-.019.041-.038a.256.256 0 0 1 .061-.048l4.237-3.81h-5.234a.269.269 0 0 0 -.081.01h-.03a.518.518 0 0 1 -.539-.5.525.525 0 0 1 .539-.5h.04l.031.01h5.746v-.362a.227.227 0 0 0 -.01-.077v-.029a.541.541 0 0 1 1.077.01v.029l-.01.029v.419h.417v-.01h.172a.517.517 0 0 1 .539.486z" transform="translate(-139.712 -335.307)"/></g></svg>