<svg height="200" viewBox="0 0 1024 1024" width="200" xmlns="http://www.w3.org/2000/svg"><path d="m384 480a32 32 0 0 0 -64 0v85.312a32 32 0 1 0 64 0zm170.624-85.312a32 32 0 1 0 -64 0v170.624a32 32 0 0 0 64 0zm138.688-117.376a32 32 0 0 1 32 32v256a32 32 0 0 1 -64 0v-256a32 32 0 0 1 32-32z"/><path d="m160 128a96 96 0 0 0 -96 96v426.688a96 96 0 0 0 96 96h330.688v96a32 32 0 0 0 1.792 10.688h-225.856a32 32 0 0 0 0 64h512a32 32 0 0 0 0-64h-225.792a32 32 0 0 0 1.792-10.688v-96h330.688a96 96 0 0 0 96-96v-426.688a96 96 0 0 0 -96-96zm-32 96a32 32 0 0 1 32-32h725.312a32 32 0 0 1 32 32v426.688a32 32 0 0 1 -32 32h-725.312a32 32 0 0 1 -32-32z"/></svg>