<svg height="200" viewBox="0 0 1024 1024" width="200" xmlns="http://www.w3.org/2000/svg"><path d="m384 544c-19.2 0-32 12.8-32 32s12.8 32 32 32h256c19.2 0 32-12.8 32-32s-12.8-32-32-32z"/><path d="m921.6 371.2-115.2-236.8c-12.8-25.6-38.4-38.4-64-38.4h-460.8c-25.6 0-51.2 12.8-64 38.4l-115.2 236.8-6.4 6.4v448c0 57.6 44.8 102.4 102.4 102.4h627.2c57.6 0 102.4-44.8 102.4-102.4v-448zm-377.6-204.8h198.4l89.6 185.6h-288zm-262.4 0h198.4v185.6h-294.4zm576 659.2c0 19.2-12.8 32-32 32h-627.2c-19.2 0-32-12.8-32-32v-403.2h691.2z"/></svg>