<svg height="32" viewBox="0 0 1024 1024" width="32" xmlns="http://www.w3.org/2000/svg"><path d="m878.567211 781.167393-140.833539-265.507026c4.968152-7.80271 9.524934-15.792685 13.731746-23.726378l1.463328-3.228531c5.228071-10.707876 9.524934-21.329794 12.736069-31.600719l2.191922-8.764618h-.026606c7.770987-26.295899 11.685133-52.110845 11.685133-76.858482 0-150.169161-119.327736-272.331455-266.033006-272.331455-146.706293 0-266.0064 122.162294-266.0064 272.331455 0 49.963948 13.353123 98.728582 38.686091 141.28584l-143.405106 268.399914c-5.054109 9.451256-4.119831 21.021779 2.337231 29.497824 6.427386 8.413624 17.764596 12.32777 27.816532 9.640568l111.555725-29.800723 41.431621 116.462478c3.505847 9.993608 12.564154 17.006326 23.141046 17.823947l1.927909.058328c9.759271 0 18.758226-5.432733 23.37436-14.140045l136.304386-255.064186 136.304386 255.064186c4.733814 8.764618 13.674441 14.140045 23.433712 14.140045l2.045589-.058328c10.43056-.817622 19.459191-7.830339 22.962991-17.823947l41.403992-116.462478 111.585401 29.800723c2.221598.585331 4.469801.876973 6.719028.876973 8.327666 0 16.013719-3.800559 21.095457-10.517541 6.490833-8.476045 7.395436-20.10285 2.371002-29.497824m-556.964074-221.2695c37.253462 39.677675 85.522816 67.083861 137.765667 78.187757l-103.550401 193.791681-29.511127-83.083254c-3.797489-10.723226-13.850449-17.880229-25.01165-17.880229-2.337231 0-4.616134.319272-6.80601.904603l-75.471902 20.190855zm397.34161-132.083247c-1.841951 6.910387-4.060479 13.732769-6.808056 21.153786-2.541893 6.822382-5.405103 13.411451-8.531304 19.868513l-2.483564 5.53711c-15.07637 29.862121-46.662763 78.423117-101.796454 105.011682l-2.484587 1.314948c-6.808056 2.539846-12.739139 4.381797-17.58961 5.463432-14.815427 3.216251-30.942733 3.476171-50.461275 3.476171l-15.309684-.028653c-117.341498 0-212.768895-97.822956-212.768895-218.129996 0-120.277364 95.427396-218.144322 212.768895-218.144322 117.310799 0 212.768895 97.866958 212.768895 218.144322.001022 19.021216-2.453889 37.969777-7.304361 56.333007m-56.654324 172.052564c.467651-.352017 2.952238-2.308579 6.954389-5.755074l3.242857-.408299.99363-3.273557c7.305383-6.514367 17.356296-16.070001 28.371164-28.197202l100.540857 189.776228-75.559906-20.190855c-13.118785-3.565199-27.260877 4.090155-31.816636 16.975627l-29.53978 83.083254-102.763478-192.214767c39.884383-5.695723 77.429487-20.598131 99.576903-39.795355"/><path d="m616.857674 311.540456h-64.488757v151.423735h36.290531v-51.101865h26.295899c46.633087-.598634 56.858986-28.240181 57.20998-51.995211-1.371229-21.008477-12.065802-46.427403-55.307653-48.326659m-28.198225 31.992645h23.434735c19.545148.453325 22.702048 9.335622 23.141046 17.327644-.205685 9.174963-3.099594 18.597567-22.938432 18.99154h-23.638373l.000001-36.319184z"/><path d="m502.085698 311.540456h-37.546128l-1.840928 5.14109c-18.758226 53.235458-28.92682 82.396615-34.536584 98.524944-6.895037-18.903535-18.87386-51.876508-35.793204-98.582249l-1.811252-5.083785h-38.949081l59.605539 151.453411h33.339316l57.531298-146.19464v146.19464h35.645848l.000001-151.453411h-33.57263z"/></svg>