<svg height="200" viewBox="0 0 1024 1024" width="200" xmlns="http://www.w3.org/2000/svg"><path d="m753.845117 371.674021h-17.46272v-83.669608c0-59.275012-22.62837-115.203812-63.715137-157.482731-42.170448-43.394323-99.369172-67.291592-161.058163-67.291592-126.040624 0-224.772276 98.731652-224.772276 224.7733v83.669608h-16.680914c-62.788022 0-113.688295 50.900274-113.688295 113.688295l-.000001 357.600491c0 62.788022 50.900274 113.688295 113.688295 113.688295h483.690234c62.788022 0 113.688295-50.900274 113.688295-113.688295l.000001-357.599468c-.002047-62.788021-50.901297-113.688295-113.689319-113.688295zm-425.668773-83.668585c0-102.858646 80.573083-183.432753 183.431729-183.432753 50.423413 0 97.093339 19.447934 131.410935 54.762231 33.547047 34.519188 52.021817 80.214926 52.021817 128.670521v83.669608l-366.864481.000001zm498.015498 554.956348c0 39.956014-32.390711 72.346725-72.346725 72.346725h-483.690234c-39.956014 0-72.346725-32.390711-72.346725-72.346725v-357.599468c0-39.956014 32.390711-72.346725 72.346725-72.346725h483.690234c39.956014 0 72.346725 32.390711 72.346725 72.346725z"/><path d="m509.932921 580.446905c-11.416004 0-20.670785 9.254781-20.670785 20.670785v109.554138c0 11.414981 9.254781 20.670785 20.670785 20.670785s20.670785-9.254781 20.670785-20.670785l.000001-109.555161c-.001024-11.414981-9.254782-20.669762-20.670786-20.669762z"/></svg>