<svg height="200" viewBox="0 0 1024 1024" width="200" xmlns="http://www.w3.org/2000/svg"><path d="m966.4 620.8-140.8-140.8 51.2-51.2 6.4-6.4 6.4-6.4 57.6-57.6c38.4-38.4 38.4-102.4 0-140.8l-140.8-140.8c-38.4-38.4-102.4-38.4-140.8 0l-121.6 128-140.8-147.2c-38.4-38.4-102.4-38.4-140.8 0l-140.8 140.8c-38.4 38.4-38.4 102.4 0 140.8l140.8 140.8-102.4 115.2c-6.4 0-12.8 6.4-12.8 12.8l-44.8 243.2c0 12.8 0 19.2 6.4 25.6 6.4 12.8 19.2 19.2 25.6 19.2l281.6-12.8c6.4 0 12.8-6.4 19.2-6.4l108.8-108.8 140.8 140.8c38.4 38.4 102.4 38.4 140.8 0l140.8-140.8c32-44.8 32-108.8 0-147.2zm-249.6-499.2c12.8-12.8 32-12.8 51.2 0l140.8 140.8c12.8 12.8 12.8 32 0 51.2l-44.8 44.8-185.6-185.6zm-473.6 243.2-70.4-70.4c-12.8-12.8-12.8-32 0-51.2l140.8-140.8c12.8-12.8 32-12.8 51.2 0l140.8 140.8-192 192-25.6-25.6 70.4-70.4c12.8-12.8 12.8-32 0-44.8s-32-12.8-44.8 0zm281.6 326.4-121.6 121.6-224 12.8 38.4-198.4 416-416 185.6 185.6-57.6 57.6zm390.4 25.6-140.8 140.8c-12.8 12.8-32 12.8-51.2 0l-19.2-25.6 70.4-70.4c12.8-12.8 12.8-32 0-44.8s-32-12.8-44.8 0l-70.4 70.4-70.4-70.4 185.6-185.6 140.8 140.8c19.2 6.4 19.2 25.6 0 44.8z"/></svg>