<svg height="16.462" viewBox="0 0 14.804 16.462" width="14.804" xmlns="http://www.w3.org/2000/svg"><path d="m123.218 79.328h-9.826c-1.144 0-1.864-.245-2.2-.748a1.1 1.1 0 0 1 -.113-1l.054-.094 1.708-2.234v-2.823a5.573 5.573 0 0 1 4.479-5.444l.075-.007 1.9.007a5.573 5.573 0 0 1 4.479 5.444v2.827l1.763 2.328a1.1 1.1 0 0 1 -.113 1c-.342.499-1.062.744-2.206.744zm-11.382-1.4a.273.273 0 0 0 .047.2c.08.112.388.373 1.508.373h9.826c1.121 0 1.428-.261 1.508-.373a.271.271 0 0 0 .046-.2l-1.831-2.394v-3.105a4.643 4.643 0 0 0 -3.766-4.623h-1.742a4.662 4.662 0 0 0 -3.767 4.623v3.107zm7.918-10.428h-.828v-1.039a.621.621 0 1 0 -1.242 0v1.039h-.828v-1.039a1.449 1.449 0 0 1 2.9 0zm-1.454 13.795a2.613 2.613 0 0 1 -2.811-2.577h.828a2 2 0 0 0 3.967 0h.828a2.613 2.613 0 0 1 -2.812 2.577z" opacity=".65" stroke="#fff" stroke-width=".18" transform="translate(-110.903 -64.922)"/></svg>