<svg height="200" viewBox="0 0 1024 1024" width="200" xmlns="http://www.w3.org/2000/svg"><path d="m288 550.4c0-19.2 12.8-32 32-32h403.2c19.2 0 32 12.8 32 32s-12.8 32-32 32h-403.2c-19.2 0-32-12.8-32-32zm32 102.4c-19.2 0-32 12.8-32 32s12.8 32 32 32h204.8c19.2 0 32-12.8 32-32s-12.8-32-32-32z"/><path d="m857.6 313.6h-115.2l-140.8-185.6c-38.4-51.2-121.6-51.2-160 0l-140.8 185.6h-115.2c-57.6 0-102.4 44.8-102.4 102.4v403.2c0 57.6 44.8 102.4 102.4 102.4h672c57.6 0 102.4-44.8 102.4-102.4v-403.2c0-57.6-44.8-102.4-102.4-102.4zm-364.8-147.2c12.8-19.2 38.4-19.2 51.2 0l108.8 147.2h-268.8zm396.8 652.8c0 19.2-12.8 32-32 32h-672c-19.2 0-32-12.8-32-32v-403.2c0-19.2 12.8-32 32-32h672c19.2 0 32 12.8 32 32z"/></svg>