<svg height="200" viewBox="0 0 1024 1024" width="200" xmlns="http://www.w3.org/2000/svg"><path d="m850.879104 96.41591h-676.303067c-60.681034 0-110.049418 49.367361-110.049418 110.049418v446.200388c0 60.681034 49.367361 110.049418 110.049418 110.049418h90.307795l132.052549 168.414712c3.793396 4.838192 9.598612 7.66354 15.746636 7.66354s11.952216-2.825348 15.746636-7.66354l132.052548-168.414711h290.396903c60.681034 0 110.049418-49.367361 110.049418-110.049418v-446.200388c-0-60.681035-49.36736-110.049419-110.049418-110.049419zm70.032006 556.249807c0 38.614459-31.416524 70.030983-70.030983 70.030983h-300.135708c-6.147 0-11.952216 2.825348-15.745612 7.66354l-122.31579 155.995867-122.31579-155.995867c-3.792373-4.838192-9.597589-7.66354-15.745612-7.66354h-100.045577c-38.614459 0-70.030983-31.416524-70.030983-70.030983l-.000001-446.200388c0-38.614459 31.416524-70.030983 70.030983-70.030983h676.303067c38.614459 0 70.030983 31.416524 70.030983 70.030983v446.200388z"/><path d="m272.621051 344.526731c-44.132126 0-80.035848 35.903721-80.035848 80.035848 0 44.132126 35.903721 80.036871 80.035848 80.036871s80.035848-35.904745 80.035848-80.036871c-.001024-44.132127-35.904745-80.035848-80.035848-80.035848zm0 120.055306c-22.065552 0-40.017412-17.951861-40.017412-40.018436 0-22.065552 17.952884-40.017412 40.017412-40.017412 22.065552 0 40.017412 17.951861 40.017412 40.017412 0 22.065552-17.951861 40.018436-40.017412 40.018436z"/><path d="m512.727571 344.526731c-44.132126 0-80.035848 35.903721-80.035848 80.035848 0 44.132126 35.903721 80.036871 80.035848 80.036871 44.132126 0 80.035848-35.904745 80.035848-80.036871-.000001-44.132127-35.903722-80.035848-80.035848-80.035848zm0 120.055306c-22.065552 0-40.017412-17.951861-40.017412-40.018436 0-22.065552 17.951861-40.017412 40.017412-40.017412 22.065552 0 40.017412 17.951861 40.017412 40.017412.001023 22.065552-17.951861 40.018436-40.017412 40.018436z"/><path d="m752.836137 344.526731c-44.131103 0-80.035848 35.903721-80.035848 80.035848 0 44.132126 35.904745 80.036871 80.035848 80.036871s80.035848-35.904745 80.035848-80.036871c0-44.132127-35.904745-80.035848-80.035848-80.035848zm0 120.055306c-22.066575 0-40.017412-17.951861-40.017412-40.018436 0-22.065552 17.951861-40.017412 40.017412-40.017412s40.017412 17.951861 40.017412 40.017412c0 22.065552-17.950837 40.018436-40.017412 40.018436z"/></svg>