<svg height="15.881" viewBox="0 0 15.881 15.881" width="15.881" xmlns="http://www.w3.org/2000/svg"><g opacity=".65" transform="translate(-85.325 -85.325)"><path d="m95.648 87.707a2.382 2.382 0 1 0 -2.382 2.382 2.382 2.382 0 0 0 2.382-2.382zm-1.191 0a1.191 1.191 0 1 1 -1.191-1.191 1.191 1.191 0 0 1 1.191 1.191zm-4.367 9.528a2.382 2.382 0 1 0 -2.382 2.382 2.382 2.382 0 0 0 2.381-2.381zm-1.191 0a1.191 1.191 0 1 1 -1.191-1.191 1.191 1.191 0 0 1 1.192 1.192zm9.926 2.382a2.382 2.382 0 1 0 -2.382-2.382 2.382 2.382 0 0 0 2.381 2.383zm0-1.191a1.191 1.191 0 1 1 1.191-1.191 1.191 1.191 0 0 1 -1.192 1.192z"/><path d="m135.063 233.089a5.733 5.733 0 0 0 -2.479 4.3 3.575 3.575 0 0 0 -1.358.334 7.079 7.079 0 0 1 3.446-5.962 3.6 3.6 0 0 0 .391 1.333zm8.967 4.3a5.734 5.734 0 0 0 -2.479-4.3 3.68 3.68 0 0 0 .391-1.333 7.08 7.08 0 0 1 3.446 5.96 3.629 3.629 0 0 0 -1.358-.331zm-5.725 6.186a5.69 5.69 0 0 0 2.479-.569 3.627 3.627 0 0 0 .962 1.01 7.035 7.035 0 0 1 -6.888 0 3.573 3.573 0 0 0 .967-1.01 5.731 5.731 0 0 0 2.481.564z" transform="translate(-45.047 -143.706)"/></g></svg>