<svg height="200" viewBox="0 0 1024 1024" width="200" xmlns="http://www.w3.org/2000/svg"><path d="m955.069071 864.311021-215.053937-215.052914c-3.752464-3.751441-8.841366-5.860475-14.149255-5.860475-5.306866 0-10.395768 2.108011-14.149255 5.860475l-16.692171 16.692171-38.34226-38.34226c53.03796-59.810201 85.298711-138.442072 85.298711-224.478588 0-186.774871-151.952784-338.727655-338.727655-338.727655s-338.725607 151.952785-338.725607 338.727655c0 186.775894 151.952784 338.728678 338.727655 338.728678 86.36909 0 165.276231-32.510438 225.170343-85.913718l38.303374 38.303374-17.34504 17.34504c-7.812943 7.813966-7.812943 20.48352 0 28.297486l215.051891 215.052914c3.753487 3.751441 8.841366 5.860475 14.149255 5.860475 5.306866 0 10.395768-2.108011 14.149255-5.860475l62.334697-62.334697c7.813965-7.813966 7.813965-20.48352-.000001-28.297486zm-850.522993-461.181591c0-164.709319 133.9999-298.709219 298.709219-298.709219s298.709219 133.9999 298.709219 298.709219-133.9999 298.710243-298.709219 298.710243-298.709219-134.000924-298.709219-298.710243zm774.039041 509.367033-186.755428-186.755427 34.036187-34.036187 186.755428 186.755428z"/></svg>