<svg height="200" viewBox="0 0 1024 1024" width="200" xmlns="http://www.w3.org/2000/svg"><path d="m32 136.53333333a32 32 0 0 1 32-32h896a32 32 0 0 1 0 64h-896a32 32 0 0 1 -32-32z"/><path d="m448 735.63733333a32 32 0 0 0 -53.248-35.456l-128 192a32 32 0 0 0 53.248 35.392l128-192zm138.752 0a32 32 0 0 1 53.248-35.456l128 192a32 32 0 1 1 -53.248 35.456z"/><path d="m792.128 307.54133333a32 32 0 0 1 -3.136 45.12l-157.504 137.152a32 32 0 0 1 -33.344 5.376l-178.56-74.624-142.592 124.16a32 32 0 1 1 -41.984-48.32l157.504-137.152a32 32 0 0 1 33.344-5.376l178.56 74.624 142.592-124.16a32 32 0 0 1 45.12 3.2z"/><path d="m160 136.53333333v512a32 32 0 0 0 32 32h640a32 32 0 0 0 32-32v-512h64v512a96 96 0 0 1 -96 96h-640a96 96 0 0 1 -96-96v-512z"/></svg>